# xmcd CD database file
#
# Track frame offsets:
#	150
#	36273
#	43467
#	56585
#	69309
#	85221
#	97730
#	110537
#	119841
#	135671
#	146536
#	158061
#	168548
#	178818
#	190798
#	202537
#	210773
#	223415
#
# Disc length: 3129 seconds
#
# Revision: 2
# Processed by: cddbd v1.5.2PL0 Copyright (c) Steve Scherf et al.
# Submitted via: CDex 1.51
#
DISCID=060c3712
DTITLE=LONNIE YOUNGBLOOD Feat. JIMI HENDRIX - Two Great Experiences
DYEAR=2003
DGENRE=R&B
TTITLE0=Mother, Mother
TTITLE1=Under The Table Take 1
TTITLE2=Under The Table Take 2
TTITLE3=Wipe The Sweat Take 1
TTITLE4=Wipe The Sweat Take 2 
TTITLE5=Wipe The Sweat Take 3
TTITLE6=Go Go Shoes
TTITLE7=Go Go Place
TTITLE8=Soul Food
TTITLE9=Goodbye Bessie Mae
TTITLE10=Sweet Thang
TTITLE11=Groove Maker Take 1
TTITLE12=Groove Maker  Take 2
TTITLE13=She's A Fox
TTITLE14=Go Go Shoes(Fairmount 45)
TTITLE15=Go Go Place(Fairmount 45) 
TTITLE16=Soul Food(Fairmount 45)
TTITLE17=Goodbye Bessie Mae(Fairmount 45)
EXTD=YEAR: 2003
EXTT0=
EXTT1=
EXTT2=
EXTT3=
EXTT4=
EXTT5=
EXTT6=
EXTT7=
EXTT8=
EXTT9=
EXTT10=
EXTT11=
EXTT12=
EXTT13=
EXTT14=
EXTT15=
EXTT16=
EXTT17=
PLAYORDER=
